# xmcd
#
# Track frame offsets: 
#        150
#        35951
#        76709
#        100076
#        133335
#        167750
#        201609
#
# Disc length: 3002 seconds
#
# Revision: 2
# Processed by: cddbd v1.5.2PL0 Copyright (c) Steve Scherf et al.
# Submitted via: ExactAudioCopy v1.3
#
DISCID=610bb807
DTITLE=Sir Arthur Conan Doyle - Die Abenteuer des Sherlock Holmes 3 - 
DTITLE=Die fünf Orangenkerne CD1
DYEAR=2012
DGENRE=Lesung
TTITLE0=Die Fünf Orangenkerne 1
TTITLE1=Die Fünf Orangenkerne 2
TTITLE2=Die Fünf Orangenkerne 3
TTITLE3=Die Fünf Orangenkerne 4
TTITLE4=Die Fünf Orangenkerne 5
TTITLE5=Die Fünf Orangenkerne 6
TTITLE6=Die Fünf Orangenkerne 7
EXTD=der Hörverlag - gelesen von Oliver Kalkofe
EXTT0=
EXTT1=
EXTT2=
EXTT3=
EXTT4=
EXTT5=
EXTT6=
PLAYORDER=
